/* XPM */
static char *_4cc266cb4724f7ee8853563f036f2a2ynivTjQPiSpDHOPw[] = {
/* columns rows colors chars-per-pixel */
"32 32 212 2 ",
"   c None",
".  c black",
"X  c #010101",
"o  c #020202",
"O  c gray1",
"+  c #040404",
"@  c gray2",
"#  c #060606",
"$  c #070707",
"%  c #070808",
"&  c gray3",
"*  c #080909",
"=  c gray4",
"-  c #0B0B0B",
";  c #0C0C0C",
":  c #0E0E0E",
">  c #0E0F0E",
",  c gray6",
"<  c #101010",
"1  c #111111",
"2  c gray7",
"3  c #131313",
"4  c gray8",
"5  c #151515",
"6  c #161616",
"7  c gray9",
"8  c #181818",
"9  c #191919",
"0  c gray10",
"q  c #1B1B1B",
"w  c #1B1C1C",
"e  c #1C1D1C",
"r  c #1D1C1D",
"t  c #1D1D1D",
"y  c #1E1E1E",
"u  c #1E1F1E",
"i  c #1F2020",
"p  c gray13",
"a  c #232323",
"s  c gray14",
"d  c #252525",
"f  c gray15",
"g  c #272727",
"h  c gray16",
"j  c gray17",
"k  c #2C2C2C",
"l  c #2F2F2F",
"z  c gray20",
"x  c #343434",
"c  c gray21",
"v  c #393939",
"b  c #3A3A3A",
"n  c gray23",
"m  c gray24",
"M  c gray25",
"N  c #414241",
"B  c gray26",
"V  c #464646",
"C  c #484848",
"Z  c #484949",
"A  c #484A49",
"S  c #4C4C4C",
"D  c #4D4F4E",
"F  c #515151",
"G  c gray32",
"H  c #535353",
"J  c #555555",
"K  c #565656",
"L  c #5A5A5A",
"P  c #5B5B5B",
"I  c #5B5C5C",
"U  c #5D5D5D",
"Y  c #606060",
"T  c #676767",
"R  c gray42",
"E  c #6B6E6C",
"W  c #6B6E6D",
"Q  c gray43",
"!  c gray45",
"~  c #747574",
"^  c #777A78",
"/  c gray47",
"(  c #797979",
")  c gray48",
"_  c #787C7A",
"`  c #7B7C7B",
"'  c gray49",
"]  c #7E7E7E",
"[  c #808080",
"{  c #838383",
"}  c #838584",
"|  c #848484",
" . c gray52",
".. c #868686",
"X. c gray53",
"o. c #868887",
"O. c #888888",
"+. c #898989",
"@. c gray54",
"#. c #8B8B8B",
"$. c gray55",
"%. c #8C8F8E",
"&. c #8D8F8E",
"*. c #8E9290",
"=. c #919292",
"-. c #909492",
";. c #929593",
":. c gray59",
">. c #9B9B9B",
",. c #9D9F9E",
"<. c gray62",
"1. c #9F9F9F",
"2. c #A0A0A0",
"3. c gray64",
"4. c #A2A4A3",
"5. c #A5A5A5",
"6. c #A8ABA9",
"7. c #AAAAAA",
"8. c #AAAEAC",
"9. c #ACB0AE",
"0. c #B1B1B1",
"q. c #B2B2B2",
"w. c gray70",
"e. c #B4B4B4",
"r. c gray71",
"t. c #B6B6B6",
"y. c #B7B7B7",
"u. c #BCBCBC",
"i. c #BCBDBC",
"p. c #BCBDBD",
"a. c gray74",
"s. c #BEC0BF",
"d. c #BEC2C0",
"f. c #BEC3C0",
"g. c #BFC3C1",
"h. c #BEC4C1",
"j. c #BFC5C2",
"k. c #C0C0C0",
"l. c #C1C1C1",
"z. c #C0C3C1",
"x. c gray76",
"c. c #C3C3C3",
"v. c #C2C6C4",
"b. c gray77",
"n. c #C5C5C5",
"m. c gray78",
"M. c #C3C8C6",
"N. c #C4C9C6",
"B. c #C4C9C7",
"V. c #C7C9C8",
"C. c #C8C8C8",
"Z. c gray79",
"A. c #CACACA",
"S. c #CBCBCB",
"D. c #CBCFCD",
"F. c gray80",
"G. c #CECECE",
"H. c gray81",
"J. c #D0CFCF",
"K. c #CFD3D1",
"L. c #D0D0D0",
"P. c gray82",
"I. c #D1D2D2",
"U. c #D2D3D3",
"Y. c #D0D4D2",
"T. c #D1D4D2",
"R. c #D2D5D3",
"E. c #D4D7D5",
"W. c #D6D9D8",
"Q. c #D7D9D8",
"!. c gray85",
"~. c #D8DBDA",
"^. c #DADADA",
"/. c gray86",
"(. c #DADDDC",
"). c gainsboro",
"_. c #DDDDDD",
"`. c #DCDFDE",
"'. c gray87",
"]. c #DFDFDF",
"[. c gray88",
"{. c #E1E1E1",
"}. c gray89",
"|. c #E2E4E3",
" X c #E2E5E4",
".X c gray90",
"XX c #E7E7E7",
"oX c #E6E8E7",
"OX c #E7E8E8",
"+X c #E8EAE9",
"@X c #E9EBEA",
"#X c gray92",
"$X c #EDEEEE",
"%X c #EFEFEF",
"&X c gray94",
"*X c #F1F2F2",
"=X c #F1F3F2",
"-X c gray95",
";X c #F3F4F3",
":X c #F3F3F4",
">X c #F4F5F5",
",X c gray96",
"<X c gray97",
"1X c #F9F9F9",
"2X c #F9FAFA",
"3X c #FAFBFA",
"4X c #FBFBFB",
"5X c #FCFDFD",
"6X c #FDFDFD",
"7X c #FDFEFD",
"8X c #FEFEFE",
"9X c white",
/* pixels */
"                                                                ",
"                        j.j.j.j.j.j.j.d.                        ",
"                  M.N.d.8.*.^ E E _ -.9.d.V.                    ",
"                D.z.%.A 9 = . . . . = u D ;.v.D.                ",
"            T.K.4.N = . . . . . . . . . . = A 6.K.T.            ",
"          Q.T.} 9 . . . . . . . . . . . . . . e &.E.Q.          ",
"        `.~.' = . . . . . . . . . . . . . . . . , o.(.          ",
"        |.=.; . . . . . . . . . . . . . . . . . . 3 ,. X        ",
"      +Xs.i . . . . . . . . . . . . . . . . . . . . h V.+X      ",
"      oXI . . @ 3 3 @ . . . . . . . . . . = 3 < . . . R +X      ",
"    =Xi.3 . . Y G.I.R . . . . . . . . . . %.I.m.m . . w V.=X    ",
"    ;X~ . . . [ 9X9X+.. . . . . . . . . $ e.9X9XJ . . .  .,X    ",
"    OXv . . . ' 9X9X+.. . . . . . . . . @ e.9X3XG . . . A $X    ",
"  3XI.9 . . . [ 9X9X .@ g ; . . . . 8 a = e.9X3XG . . . a ).3X  ",
"  9Xu.= . . . ' 9X9X .; 0. .. . . < e.+.= e.9X4XG . . . 3 Z.9X  ",
"  9X0.@ . . . ' 9X9X .. P [.x . . Y {.x . e.9X3XG . . . = z.9X  ",
"  9Xe.@ . . . [ 9X9XO.. ; e.2.. 5 A.$.. @ e.9X4XG . . . ; z.9X  ",
"  9Xz.; . . . ' 9X9XX.. . V [.M Q ~.g . $ e.9X3XG . . . 3 J.9X  ",
"  9X).r . . . ' 9X9X+.. . @ 3.F.).( . . @ e.9X3XG . . . g .X9X  ",
"    :XN . . . ( 9X9X>.. . . k e.3.5 . . ; z.9X3XS . . . G 3X    ",
"    9X .. . . U 9X9X~.M ; ; ; 3 3 = ; < P %X9X&Xx . . . :.9X    ",
"    9XI.9 . . k .X9X9X#XF.b.n.b.n.n.b.J.=X9X9XZ.3 . . g `.9X    ",
"      9X! . . . ( <X9X9X9X9X9X9X9X9X9X9X9X9X#XK . . . [ 9X      ",
"      9X[.l . . * J 6.G.).).`.[.`.).`.~.Z.<.N . . . m .X9X      ",
"        9Xe.9 . . . @ 3 9 e e e e e e 9 3 . . . . e n.9X        ",
"          9X5.5 . . . . . . . . . . . . . . . . e e.9X          ",
"          9X9Xe.j . . . . . . . . . . . . . . x z.9X            ",
"              9X~.R 5 . . . . . . . . . . 9 ( .X9X              ",
"                9X9XG.' v 8 = . @ * 9 M +.~.9X9X                ",
"                    9X9X,X`.m.i.i.F.}.3X9X9X                    ",
"                          9X9X9X9X9X9X                          ",
"                                                                "
};
