/* XPM */
static char *_c5d620946c1440ee1b5b9a22749eb1aC69zHgXH1otodod0[] = {
/* columns rows colors chars-per-pixel */
"64 64 116 2 ",
"   c None",
".  c #000000",
"X  c #0C0C0C",
"o  c #131313",
"O  c #171817",
"+  c #1D1D1D",
"@  c #242524",
"#  c #2A2A2A",
"$  c #333433",
"%  c #363837",
"&  c #373838",
"*  c #3B3B3B",
"=  c #3F4140",
"-  c #444444",
";  c #4B4C4C",
":  c #515151",
">  c #5C5C5C",
",  c #5E6160",
"<  c #646565",
"1  c #6C6D6C",
"2  c #6F7170",
"3  c #747474",
"4  c #7C7C7C",
"5  c #7D807F",
"6  c #848484",
"7  c #8B8B8B",
"8  c #8E908F",
"9  c #929292",
"0  c #969997",
"q  c #9B9C9C",
"w  c #9DA1A0",
"e  c #A3A3A3",
"r  c #ABABAB",
"t  c #AFB0AF",
"y  c #B3B4B4",
"u  c #B3B8B5",
"i  c #B7BBB9",
"p  c #BABBBB",
"a  c #BBC1BE",
"s  c #BEC3C1",
"d  c #C3C5C4",
"f  c #C4C8C6",
"g  c #C6CBC8",
"h  c #CACCCB",
"j  c #CDD0CE",
"k  c #CED2D0",
"l  c #D3D4D4",
"z  c #D6D9D7",
"x  c #D6D9D8",
"c  c #D9DCDB",
"v  c #DADDDC",
"b  c #DDDDDD",
"n  c #DCDFDD",
"m  c #DEDFDE",
"M  c #DFDFDF",
"N  c #DBDBDB",
"B  c #DEE0DF",
"V  c #DEE1DF",
"C  c #DEE1E0",
"Z  c #E0E2E1",
"A  c #E0E3E2",
"S  c #E1E3E2",
"D  c #E1E4E2",
"F  c #E1E4E3",
"G  c #E2E5E4",
"H  c #E3E6E5",
"J  c #E4E6E5",
"K  c #E4E7E6",
"L  c #E5E7E6",
"P  c #E6E7E7",
"I  c #E7E7E7",
"U  c #E5E5E5",
"Y  c #E6E8E7",
"T  c #E7E8E8",
"R  c #E8E9E9",
"E  c #E8EAE9",
"W  c #E9EBEA",
"Q  c #EAEAEA",
"!  c #EAEBEA",
"~  c #EAEBEB",
"^  c #EAECEB",
"/  c #EBECEC",
"(  c #ECEEED",
")  c #EDEEEE",
"_  c #EDEFEE",
"`  c #EFEFEF",
"'  c #EBEBEB",
"]  c #EEF0EF",
"[  c #EFF1F1",
"{  c #F0F1F1",
"}  c #F1F2F1",
"|  c #F1F3F2",
" . c #F2F3F2",
".. c #F3F3F3",
"X. c #F3F4F4",
"o. c #F4F5F5",
"O. c #F5F6F5",
"+. c #F5F6F6",
"@. c #F6F7F7",
"#. c gray97",
"$. c #F4F4F4",
"%. c #F7F8F8",
"&. c #F7F9F8",
"*. c #F8F9F9",
"=. c #F9F9F9",
"-. c #F9FAFA",
";. c gray98",
":. c #FBFBFB",
">. c #FBFCFB",
",. c #FBFCFC",
"<. c gray99",
"1. c #FCFDFD",
"2. c #FDFDFE",
"3. c #FEFEFE",
"4. c white",
"5. c #FFFFFF",
/* pixels */
"                                                                                                                                ",
"                                                                                                                                ",
"                                                    a a a a a a a a a a a a                                                     ",
"                                            a a a a a a a a a a a s a a a a a a a                                               ",
"                                        s s s s s d d s a i u y y u i a s s f s s s s s                                         ",
"                                    f f s f f f i w 5 , - % # @ @ # % ; < 6 w a f f f s d f                                     ",
"                                g g g g h s q < $ o . . . . . . . . . . . X O % 1 e f g g g g g                                 ",
"                              h h h j s 7 = X . . . . . . . . . . . . . . . . . . o ; 0 f j h h h                               ",
"                          j j j k h 0 * X . . . . . . . . . . . . . . . . . . . . . . X ; e j j j j                             ",
"                        l l k l p > o . . . . . . . . . . . . . . . . . . . . . . . . . . O 2 f l j l l                         ",
"                      l l l z e $ . . . . . . . . . . . . . . . . . . . . . . . . . . . . . . - y z l z z                       ",
"                    x z x z 8 + . . . . . . . . . . . . . . . . . . . . . . . . . . . . . . . . # w x z z x                     ",
"                  x c c x 6 o . . . . . . . . . . . . . . . . . . . . . . . . . . . . . . . . . . + q n x c                     ",
"                  n B V 7 o . . . . . . . . . . . . . . . . . . . . . . . . . . . . . . . . . . . . + w V B V                   ",
"                C C D q O . . . . . . . . . . . . . . . . . . . . . . . . . . . . . . . . . . . . . . @ y C C C                 ",
"              D D K p @ . . . . . . . . . . . . . . . . . . . . . . . . . . . . . . . . . . . . . . . . * h K D D               ",
"              K K N ; . . . . . . . . . . . . . . . . . . . . . . . . . . . . . . . . . . . . . . . . . . < Z H K               ",
"            T Y E 6 . . . . . . . . . . . . . . . . . . . . . . . . . . . . . . . . . . . . . . . . . . . o e E Y T             ",
"          ^ E ^ f @ . . . . . . . . . . . . . . . . . . . . . . . . . . . . . . . . . . . . . . . . . . . . & x E E             ",
"          / / E 1 . . . . . . . X . X . . . . . . . . . . . . . . . . . . . . . . . . . X . X X . . . . . . . 7 / / /           ",
"          / [ f + . . . . . X 7 i p u p 0 o . . . . . . . . . . . . . . . . . . . . - y p u y u : . . . . . . % x ] /           ",
"        ] ] [ 4 . . . . . . + M <.<.<.<.' # . . . . . . . . . . . . . . . . . . . . 4 <.<.<.<.<.9 . . . . . . . q ..[ /         ",
"        } ..m $ . . . . . . + M <.<.<.<.I # . . . . . . . . . . . . . . . . . . . . 4 <.<.<.<.<.9 . . . . . . . : E } }         ",
"      ....O.r X . . . . . . + m <.<.<.<.I # . . . . . . . . . . . . . . . . . . . . 4 <.<.<.<.<.9 . . . . . . . O g O.O.        ",
"      X.o.O.3 . . . . . . . @ N <.<.<.<.I # . . . . . . . . . . . . . . . . . . . . 4 <.<.<.<.<.9 . . . . . . . . 0 #.o.o.      ",
"      O.O.E - . . . . . . . + m <.<.<.<.I # . . . . . . . . . . . . . . . . . . . . 4 <.<.<.<.<.9 . . . . . . . . < o.o.o.      ",
"      O.-.l @ . . . . . . . + N <.<.<.<.I # . . . . . . . . . . . . . . . . . . . . 4 <.<.<.<.<.9 . . . . . . . . % K O.O.      ",
"      %.-.p X . . . . . . . + m <.<.<.<.I # . X % % + . . . . . . . . . X $ & @ . . 4 <.<.<.<.<.9 . . . . . . . . + l =.@.      ",
"    %.%.>.w . . . . . . . . @ N <.<.<.<.E # . + d ..y o . . . . . . . . > / } 4 . . 4 <.<.<.<.<.9 . . . . . . . . X p <.%.      ",
"    -.-.:.7 . . . . . . . . + N <.<.<.<.E # . . 3 <.<.< . . . . . . . O d <.N @ . . 4 <.<.<.<.<.9 . . . . . . . . X r <.-.      ",
"    -.-.:.4 . . . . . . . . + m <.<.<.<.I # . . O h <.j + . . . . . . 1 <.<.3 . . . 4 <.<.<.<.<.9 . . . . . . . . . w <.-.-.    ",
"    -.-.<.3 . . . . . . . . @ N <.<.<.<.I # . . . , =.<.4 . . . . . @ l <.h + . . . 4 <.<.<.<.<.9 . . . . . . . . . 0 <.-.-.    ",
"    :.:.<.3 . . . . . . . . + M <.<.<.<.I # . . . X p <.N @ . . . . 4 <.<.< . . . . 4 <.<.<.<.<.0 . . . . . . . . . 0 <.<.<.    ",
"    >.:.<.6 . . . . . . . . + M <.<.<.<.I # . . . . ; } <.7 . . . # m <.p o . . . . 4 <.<.<.<.<.9 . . . . . . . . . e <.<.      ",
"    <.<.<.0 . . . . . . . . + M <.<.<.<.I # . . . . X e <.K % . . 7 <.O.: . . . . . 4 <.<.<.<.<.9 . . . . . . . . X y <.<.      ",
"      <.<.r . . . . . . . . + N <.<.<.<.I # . . . . . & E <.q . % K <.r X . . . . . 4 <.<.<.<.<.9 . . . . . . . . o d <.<.      ",
"      <.<.g o . . . . . . . + m <.<.<.<.I # . . . . . . 7 <./ ; q <./ - . . . . . . 6 <.<.<.<.<.9 . . . . . . . . @ Z <.<.      ",
"      <.<.Z # . . . . . . . @ N <.<.<.<.E # . . . . . . # m <.Z } <.q . . . . . . . 4 <.<.<.<.<.9 . . . . . . . . - } <.<.      ",
"      <.<.-.: . . . . . . . + N <.<.<.<.` & . . . . . . . 3 <.<.<.Z $ . . . . . . . 9 <.<.<.<.<.7 . . . . . . . . 3 <.<.<.      ",
"      <.<.<.7 . . . . . . . o j <.<.<.<.:.> . . . . . . . o 3 e q ; . . . . . . . . r <.<.<.<.<.4 . . . . . . . . r <.<.<.      ",
"        <.<.g o . . . . . . X p <.<.<.<.<.r . . . . . . . . . . . . . . . . . . . $ S <.<.<.<.<.< . . . . . . . @ m <.<.        ",
"        <.<.o.- . . . . . . . 9 <.<.<.<.<.-.6 # X . . . . . . . . . X . . . X o * p <.<.<.<.<.O.- . . . . . . . < <.<.<.        ",
"        <.<.<.q . . . . . . . > <.<.<.<.<.<.<.Z p r e e e e e e e e e e e e r g } <.<.<.<.<.<.l O . . . . . . X p <.<.<.        ",
"          <.<.K $ . . . . . . + l <.<.<.<.<.<.<.<.<.<.<.<.<.<.<.<.<.<.<.<.<.<.<.<.<.<.<.<.<.<.7 . . . . . . . ; O.<.<.          ",
"          <.<.<.9 . . . . . . . < =.<.<.<.<.<.<.<.<.<.<.<.<.<.<.<.<.<.<.<.<.<.<.<.<.<.<.<.<.l # . . . . . . X t <.<.<.          ",
"            <.<.E * . . . . . . X 6 -.<.<.<.<.<.<.<.<.<.<.<.<.<.<.<.<.<.<.<.<.<.<.<.<.<.<.m - . . . . . . . > O.<.<.            ",
"            <.<.<.y o . . . . . . . > g =.<.<.<.<.<.<.<.<.<.<.<.<.<.<.<.<.<.<.<.<.<.<./ r % . . . . . . . + h <.<.<.            ",
"              <.<.-.3 . . . . . . . . o : 7 t g l x N N N m N N m N N N m N N h d w 3 & . . . . . . . . X 0 <.<.<.              ",
"              <.<.<.E ; . . . . . . . . . . . o O + + + + O + + + + O + + + O O X . . . . . . . . . . . < O.<.<.<.              ",
"                <.<.<.l $ . . . . . . . . . . . . . . . . . . . . . . . . . . . . . . . . . . . . . . ; E <.<.<.                ",
"                  <.<.<.d # . . . . . . . . . . . . . . . . . . . . . . . . . . . . . . . . . . . . * N <.<.<.                  ",
"                    <.<.<.d # . . . . . . . . . . . . . . . . . . . . . . . . . . . . . . . . . . - N <.<.<.                    ",
"                    <.<.<.<.l - . . . . . . . . . . . . . . . . . . . . . . . . . . . . . . . . > Z <.<.<.                      ",
"                      <.<.<.<.K 1 X . . . . . . . . . . . . . . . . . . . . . . . . . . . . o 6 O.<.<.<.                        ",
"                          <.<.<.-.e $ . . . . . . . . . . . . . . . . . . . . . . . . . . ; d <.<.<.<.                          ",
"                            <.<.<.<.Z 6 @ . . . . . . . . . . . . . . . . . . . . . . % e O.<.<.<.<.                            ",
"                              <.<.<.<.<.Z 7 % X . . . . . . . . . . . . . . . . X ; e O.<.<.<.<.<.                              ",
"                                  <.<.<.<.<.} d 4 - + X . . . . . . . . X @ ; 9 N <.<.<.<.<.<.                                  ",
"                                    <.<.<.<.<.<.<.-.E g r 9 6 6 6 6 q p l } <.<.<.<.<.<.<.                                      ",
"                                          <.<.<.<.<.<.<.<.<.<.<.<.<.<.<.<.<.<.<.<.<.<.                                          ",
"                                              <.<.<.<.<.<.<.<.<.<.<.<.<.<.<.<.<.<.                                              ",
"                                                        <.<.<.<.<.<.<.<.                                                        ",
"                                                                                                                                ",
"                                                                                                                                "
};
