/* XPM */
static char *_cc95648bb9d4397eef010df1af471e6QgIWTjirqaRM8vM1[] = {
/* columns rows colors chars-per-pixel */
"16 16 102 2 ",
"   c None",
".  c black",
"X  c #010101",
"o  c gray1",
"O  c #060606",
"+  c gray3",
"@  c #090909",
"#  c #0A0B0B",
"$  c gray5",
"%  c gray6",
"&  c #101010",
"*  c #111111",
"=  c #111211",
"-  c #131313",
";  c #151515",
":  c gray9",
">  c gray10",
",  c #1D1D1D",
"<  c #1E1E1E",
"1  c #2A2A2A",
"2  c gray17",
"3  c #2D2D2D",
"4  c gray20",
"5  c #343434",
"6  c gray21",
"7  c gray22",
"8  c #383938",
"9  c #3C3C3C",
"0  c gray25",
"q  c #404241",
"w  c #414242",
"e  c gray27",
"r  c gray28",
"t  c #484948",
"y  c #494949",
"u  c gray29",
"i  c #4B4B4B",
"p  c #4C4D4C",
"a  c #535353",
"s  c #575857",
"d  c #585858",
"f  c #585A59",
"g  c #595C5B",
"h  c gray37",
"j  c #606060",
"k  c #626262",
"l  c #656565",
"z  c #676767",
"x  c #686868",
"c  c DimGray",
"v  c #6A6A6A",
"b  c #6C6C6C",
"n  c #6D6D6D",
"m  c #6F6F6F",
"M  c gray44",
"N  c #717171",
"B  c #727272",
"V  c gray45",
"C  c #767676",
"Z  c gray47",
"A  c #7C7C7C",
"S  c gray50",
"D  c #7F8080",
"F  c #868686",
"G  c gray53",
"H  c #878A89",
"J  c gray54",
"K  c #8A8D8B",
"L  c #8E8E8F",
"P  c #ACAEAD",
"I  c #AFB2B0",
"U  c #B0B1B1",
"Y  c #B6B7B7",
"T  c #B7B9B8",
"R  c #B8BDBA",
"E  c #B8BDBB",
"W  c #BBBDBC",
"Q  c #BBBFBD",
"!  c gray75",
"~  c #BDC1BF",
"^  c #BFC0C0",
"/  c #C1C1C1",
"(  c #C5C5C5",
")  c #C6C6C6",
"_  c #CBCBCB",
"`  c #CDCDCD",
"'  c #CECECE",
"]  c #D2D2D2",
"[  c #D8D8D8",
"{  c gray85",
"}  c #DDDDDD",
"|  c #DEE0DF",
" . c gray88",
".. c #E1E1E1",
"X. c #E1E3E2",
"o. c #ECECEC",
"O. c #F1F1F1",
"+. c #F3F3F3",
"@. c #F4F4F4",
"#. c #F6F6F6",
"$. c gray97",
"%. c gray98",
/* pixels */
"              E E               ",
"        ~ J d 0 w g K ~         ",
"      P y @ . . . . # p I       ",
"    T 4 . . . . . . . . 8 Q     ",
"  | d o ; O . . . . @ ; . h X.  ",
"  U $ 9 ` 0 . . . . a _ 2 = T   ",
"  D . y #.a $ . . = x +.6 . G   ",
"  l . y #.s C > 1 B x O.6 . n   ",
"  z . y #.y e n A 8 k O.6 . n   ",
"  G . t #.a . F B . x O.6 . L   ",
"  / = 3 o./ n Z C B ` ..< ; )   ",
"  #.l . B ] ........` k . B     ",
"    { e . = < < < < $ . y }     ",
"      { l = . . . . ; n }       ",
"        #.! F x x J ) %.        ",
"                                "
};
